<?xml version="1.0" encoding="utf-8"?>
<!-- Generator: Adobe Illustrator 18.1.1, SVG Export Plug-In . SVG Version: 6.00 Build 0)  -->
<svg version="1.1" id="Layer_1" xmlns="http://www.w3.org/2000/svg" xmlns:xlink="http://www.w3.org/1999/xlink" x="0px" y="0px"
	 width="10px" height="10px" viewBox="0 0 10 10" enable-background="new 0 0 10 10" xml:space="preserve">
<g>
	<path fill="#6AC1B7" d="M5.7,5.2L1.2,9.6C1.2,9.7,1.1,9.7,1,9.7s-0.2,0-0.2-0.1L0.3,9.2C0.3,9.1,0.2,9,0.2,8.9s0-0.2,0.1-0.2L4.1,5
		L0.3,1.3C0.3,1.2,0.2,1.1,0.2,1.1c0-0.1,0-0.2,0.1-0.2l0.5-0.5C0.9,0.3,1,0.3,1,0.3s0.2,0,0.2,0.1l4.4,4.4C5.7,4.8,5.8,4.9,5.8,5
		C5.8,5.1,5.7,5.2,5.7,5.2z M9.3,5.2L4.9,9.6C4.8,9.7,4.7,9.7,4.7,9.7c-0.1,0-0.2,0-0.2-0.1L4,9.2C3.9,9.1,3.9,9,3.9,8.9
		s0-0.2,0.1-0.2L7.7,5L4,1.3C3.9,1.2,3.9,1.1,3.9,1.1c0-0.1,0-0.2,0.1-0.2l0.5-0.5c0.1-0.1,0.1-0.1,0.2-0.1c0.1,0,0.2,0,0.2,0.1
		l4.4,4.4C9.4,4.8,9.4,4.9,9.4,5C9.4,5.1,9.4,5.2,9.3,5.2z"/>
</g>
</svg>
