<?xml version="1.0" encoding="utf-8"?>
<!-- Generator: Adobe Illustrator 18.1.1, SVG Export Plug-In . SVG Version: 6.00 Build 0)  -->
<svg version="1.1" id="Layer_1" xmlns="http://www.w3.org/2000/svg" xmlns:xlink="http://www.w3.org/1999/xlink" x="0px" y="0px"
	 width="110px" height="80px" viewBox="0 0 110 80" enable-background="new 0 0 110 80" xml:space="preserve">
<path fill-rule="evenodd" clip-rule="evenodd" d="M88.5,31.9c7.3,11.5,0.9,28.2,0,39.4c-2.1,2.1-1.7-2-3.6-2.2
	C70.1,81.5,49,65.8,57.1,46.5C57.4,58.7,61.7,68,71,68.3C85.8,68.8,89.3,49.1,88.5,31.9z"/>
<path fill-rule="evenodd" clip-rule="evenodd" d="M87,32.6c4.3,18.4-22.4,48.8-27.7,16.8C67.1,71.8,85.7,47.9,87,32.6z"/>
<path fill-rule="evenodd" clip-rule="evenodd" d="M68.1,4.2c3.2-0.1,0.2,2.1,0,2.9c4.4,4.3,10.9,6.2,12.4,12.4
	c3,12.7-7.3,22.3-19,23.3c13.3-2.1,20.6-24.1,5.1-29.2c-14.9-1.1-23.8,4-32.1,9.5C38.9,12.9,55.1,8.3,68.1,4.2z"/>
<path fill-rule="evenodd" clip-rule="evenodd" d="M35.3,23.9c9.3-5.5,35.8-11.2,37.2,2.9c0.7,6.8-4.6,10-8.8,13.9
	c1-3.3,5.8-7.7,4.4-13.1C65.5,17.4,44.3,22.2,35.3,23.9z"/>
<path fill-rule="evenodd" clip-rule="evenodd" d="M53.5,74.2c-15.4,0.6-23.6-12.4-33.5-19.7c-0.2-3.4,2.6,0.7,3.6-1.5
	c-4.3-21.8,22.3-26.4,32.1-14.6c-0.3-0.3,1.9,3,0,2.2c-8.5-9-24.9-5.2-26.3,5.1C27.3,61.4,44.1,68,53.5,74.2z"/>
<path fill-rule="evenodd" clip-rule="evenodd" d="M54.2,72.7c-9.6,0-33.2-34.1-9.5-35c3.9-0.1,9.7,1.9,8.8,3.6
	C27.4,37.5,45,67.8,54.2,72.7z"/>
</svg>
