<?xml version="1.0" encoding="utf-8"?>
<!-- Generator: Adobe Illustrator 18.1.1, SVG Export Plug-In . SVG Version: 6.00 Build 0)  -->
<svg version="1.1" id="Layer_1" xmlns="http://www.w3.org/2000/svg" xmlns:xlink="http://www.w3.org/1999/xlink" x="0px" y="0px"
	 width="20px" height="20px" viewBox="0 0 20 20" enable-background="new 0 0 20 20" xml:space="preserve">
<g>
	<g>
		<defs>
			<rect id="SVGID_1_" y="-1.6" width="20" height="20"/>
		</defs>
		<clipPath id="SVGID_2_">
			<use xlink:href="#SVGID_1_"  overflow="visible"/>
		</clipPath>
		<path clip-path="url(#SVGID_2_)" fill="#777777" d="M5.9,2.4c0,1.1-0.9,2-2,2c-1.1,0-2-0.9-2-2c0-1.1,0.9-2,2-2
			C5,0.4,5.9,1.3,5.9,2.4 M5.6,5.8H2.3v10.7h3.3V5.8z M10.9,5.8H7.7v10.7h3.2v-5.6c0-1.5,0.7-2.4,2-2.4c1.2,0,1.8,0.9,1.8,2.4v5.6
			H18V9.7c0-2.9-1.6-4.3-3.9-4.3c-2.3,0-3.2,1.8-3.2,1.8L10.9,5.8C10.9,5.8,10.9,5.8,10.9,5.8z"/>
	</g>
</g>
</svg>
