<?xml version="1.0" encoding="utf-8"?>
<!-- Generator: Adobe Illustrator 18.1.1, SVG Export Plug-In . SVG Version: 6.00 Build 0)  -->
<svg version="1.1" id="Layer_1" xmlns="http://www.w3.org/2000/svg" xmlns:xlink="http://www.w3.org/1999/xlink" x="0px" y="0px"
	 viewBox="229.167 198.167 70.667 71.333" enable-background="new 229.167 198.167 70.667 71.333" xml:space="preserve">
<path id="linkedin-icon" fill="#76DCC8" d="M248.48,209.835c0,4.329-3.481,7.838-7.775,7.838c-4.294,0-7.776-3.509-7.776-7.838
	c0-4.331,3.481-7.839,7.776-7.839C244.999,201.996,248.48,205.504,248.48,209.835z M247.343,223.237h-13.15v42.486h13.15V223.237z
	 M268.362,223.237h-12.611v42.486h12.611c0,0,0-15.761,0-22.304c0-5.974,2.751-9.53,8.013-9.53c4.837,0,7.16,3.414,7.16,9.53
	c0,6.116,0,22.304,0,22.304h13.086c0,0,0-15.524,0-26.902c0-11.379-6.448-16.88-15.457-16.88c-9.008,0-12.803,7.018-12.803,7.018
	v-5.721H268.362z"/>
</svg>
