<?xml version="1.0" encoding="utf-8"?>
<!-- Generator: Adobe Illustrator 18.1.1, SVG Export Plug-In . SVG Version: 6.00 Build 0)  -->
<svg version="1.1" id="Layer_1" xmlns="http://www.w3.org/2000/svg" xmlns:xlink="http://www.w3.org/1999/xlink" x="0px" y="0px"
	 width="326px" height="77px" viewBox="0 0 326 77" enable-background="new 0 0 326 77" xml:space="preserve">
<g>
	<g>
		<path fill="#010202" d="M15.6,21.7c0,0,0.7,0.4,2.5-0.1c0.8-0.2,4.8-1.5,5.9-1.7c0.6-0.1,1.6-0.3,2.4-0.2
			c3.7,0.1,16.2-1.6,21.2,1.2c3,1.7,5.1,4.3,4.1,8.7c-2,9.1-8,11.2-8,11.2s8.1-2,11.6-10.4c2.2-5.4,0.6-10.4-4.9-13.6
			C40.5,10.9,15.6,21.7,15.6,21.7"/>
		<path fill="#010202" d="M62.5,12.6C60,9.3,57.1,7.1,54,5.8c-0.5-0.2-1.1-0.6-1.5-0.9c-0.6-0.5-0.9-1.4-0.5-2.2
			c0.3-0.8,1.8-1.3,1.6-1.8c-0.2-0.6-2.1-1-4.1,0c-2,1-2.4,2-3.8,2.7c-0.6,0.3-2,0.5-3.1,0.6C35.5,4.9,29.5,8,28.3,8.7
			c-3.2,1.9-6.1,4.6-6.6,6.1c-0.3,0.5-3.8,3-4.5,3.5c-1,0.7-1.4,1.2-1.6,1.5c-0.5,0.6-0.3,1.4-0.3,1.4S39.9,4,53.9,13
			c5.4,3.5,7.1,9.6,5.6,14.9c-3.1,11.3-16.9,14.5-16.9,14.5s17.6-0.5,21.8-15.5C65.9,21.9,65.8,17.2,62.5,12.6"/>
		<path fill="#010202" d="M73,30c0,0-0.7,0.5-1.2,2.2c-0.2,0.8-1.2,4.9-1.5,5.9c-0.2,0.6-0.6,1.5-1,2.2c-2,3.2-6.7,14.8-11.6,17.8
			c-3,1.8-6.3,2.2-9.6-0.8c-6.9-6.3-5.7-12.5-5.7-12.5s-2.3,8,3.2,15.3c3.5,4.6,8.7,5.7,14.2,2.5C70,56.9,73,30,73,30"/>
		<path fill="#010202" d="M57.5,75.1c4.1-0.5,7.5-1.9,10.1-3.9c0.5-0.3,1.1-0.7,1.5-0.8c0.8-0.3,1.6-0.1,2.2,0.7
			c0.5,0.7,0.2,2.1,0.8,2.3c0.6,0.1,1.9-1.4,2.1-3.6c0.2-2.2-0.6-3.1-0.4-4.7c0.1-0.6,0.6-1.9,1-3c3-6.5,3.4-13.2,3.4-14.6
			c0-3.8-0.9-7.6-1.9-8.8c-0.3-0.5-0.7-4.8-0.8-5.7c-0.1-1.2-0.3-1.8-0.5-2.1c-0.3-0.7-1-1-1-1s2.4,29.8-12.3,37.6
			c-5.7,3-11.9,1.3-15.7-2.6c-8.2-8.3-4.1-21.8-4.1-21.8s-8.3,15.5,2.6,26.6C47.8,73.5,51.9,75.7,57.5,75.1"/>
		<path fill="#010202" d="M37.2,75.6c0,0,0-0.8-1.3-2.1c-0.6-0.6-3.7-3.5-4.4-4.2c-0.4-0.5-1-1.3-1.4-1.9
			c-1.8-3.3-9.5-13.2-9.6-18.9c-0.1-3.5,1.2-6.5,5.5-7.9c8.8-2.8,13.7,1.3,13.7,1.3s-5.8-6-14.8-4.8c-5.8,0.7-9.3,4.7-9.3,11
			C15.4,59.4,37.2,75.6,37.2,75.6"/>
		<path fill="#010202" d="M5.9,39.6C4.2,43.4,3.8,47,4.2,50.3c0,0.6,0.1,1.3,0,1.7c-0.1,0.8-0.7,1.4-1.7,1.5c-0.9,0.1-2-0.9-2.4-0.4
			c-0.4,0.5,0.2,2.3,2.1,3.6c1.9,1.3,3,1,4.3,2C7,59,7.9,60.1,8.6,61c4.1,5.8,9.8,9.5,11,10.2c3.3,1.9,7,3,8.6,2.7
			c0.6,0,4.5,1.8,5.3,2.2c1.1,0.5,1.7,0.6,2,0.6c0.8,0.1,1.4-0.4,1.4-0.4s-27-12.8-26.3-29.5c0.3-6.4,4.8-11,10.1-12.3
			c11.3-2.9,21,7.4,21,7.4s-9.2-14.9-24.4-11.1C12.2,32,8.2,34.5,5.9,39.6"/>
	</g>
	<g>
		<path fill="#010202" d="M96.9,67c-1.3-1.2-1.6-2.7-1.6-4c0-0.9,0.3-2.5,1.5-3.6c0.8-0.8,2-1.4,4.1-1.4c0.5,0,1.3,0,1.9,0.2
			c0.5,0.1,0.9,0.2,1.4,0.2c0.1,0,0.2,0.1,0.2,0.1c0,0.1,0,0.3-0.1,0.7c0,0.4,0,1.2,0,1.4c0,0.2,0,0.3-0.1,0.3
			c-0.1,0-0.1-0.1-0.1-0.3c0-0.5-0.2-1.1-0.6-1.4c-0.5-0.4-1.5-0.8-2.7-0.8c-1.8,0-2.6,0.5-3.1,1c-1,0.9-1.2,2.1-1.2,3.5
			c0,2.6,2,4.9,4.8,4.9c1,0,1.8-0.1,2.3-0.7c0.3-0.3,0.5-0.9,0.5-1.1c0-0.1,0.1-0.2,0.1-0.2c0.1,0,0.1,0.1,0.1,0.2
			c0,0.1-0.2,1.3-0.3,1.7c-0.1,0.3-0.1,0.3-0.3,0.4c-0.5,0.2-1.6,0.3-2.4,0.3C99.3,68.4,97.9,67.9,96.9,67z"/>
		<path fill="#010202" d="M111.1,57.9c3,0,5.3,1.9,5.3,5c0,3-2.1,5.5-5.3,5.5c-3.7,0-5.2-2.8-5.2-5.3
			C105.9,61,107.5,57.9,111.1,57.9z M111.4,67.9c1.2,0,3.7-0.7,3.7-4.6c0-3.2-2-4.9-4.1-4.9c-2.2,0-3.9,1.5-3.9,4.4
			C107.1,65.9,109,67.9,111.4,67.9z"/>
		<path fill="#010202" d="M119.2,62c0-2.1,0-2.5,0-2.9c0-0.5-0.1-0.7-0.6-0.8c-0.1,0-0.3,0-0.5,0c-0.1,0-0.1,0-0.1-0.1
			c0-0.1,0.1-0.1,0.2-0.1c0.6,0,1.4,0,1.5,0c0.3,0,1.1,0,1.7,0c1.7,0,2.3,0.6,2.5,0.8c0.3,0.3,0.7,0.9,0.7,1.6
			c0,1.9-1.4,3.2-3.3,3.2c-0.1,0-0.2,0-0.3,0c-0.1,0-0.1,0-0.1-0.1c0-0.1,0.1-0.1,0.4-0.1c1.3,0,2.3-0.9,2.3-2.2
			c0-0.4,0-1.3-0.7-2.1c-0.7-0.7-1.5-0.7-1.8-0.7c-0.2,0-0.5,0-0.6,0.1c-0.1,0-0.1,0.1-0.1,0.3v5.5c0,1.3,0,2.3,0.1,2.9
			c0,0.4,0.1,0.7,0.5,0.7c0.2,0,0.5,0.1,0.6,0.1c0.1,0,0.1,0,0.1,0.1c0,0.1-0.1,0.1-0.2,0.1c-0.7,0-1.6,0-1.6,0c0,0-0.9,0-1.3,0
			c-0.1,0-0.2,0-0.2-0.1c0,0,0-0.1,0.1-0.1c0.1,0,0.3,0,0.4-0.1c0.3-0.1,0.3-0.3,0.4-0.7c0.1-0.6,0.1-1.6,0.1-2.9V62z"/>
		<path fill="#010202" d="M127.6,62c0-2.1,0-2.5,0-2.9c0-0.5-0.1-0.7-0.6-0.8c-0.1,0-0.3,0-0.5,0c-0.1,0-0.1,0-0.1-0.1
			c0-0.1,0.1-0.1,0.2-0.1c0.3,0,0.7,0,1,0l0.5,0c0.1,0,2.8,0,3.1,0c0.3,0,0.5,0,0.6-0.1c0.1,0,0.1-0.1,0.2-0.1c0,0,0.1,0.1,0.1,0.1
			c0,0.1-0.1,0.3-0.1,0.6c0,0.1,0,0.7-0.1,0.9c0,0.1,0,0.1-0.1,0.1c-0.1,0-0.1-0.1-0.1-0.2c0-0.1,0-0.3-0.1-0.5
			c-0.1-0.2-0.2-0.4-0.9-0.5c-0.2,0-1.7,0-1.8,0c-0.1,0-0.1,0-0.1,0.1v3.7c0,0.1,0,0.1,0.1,0.1c0.2,0,1.8,0,2.1,0
			c0.3,0,0.5-0.1,0.6-0.2c0.1-0.1,0.1-0.2,0.2-0.2c0,0,0.1,0,0.1,0.1c0,0.1-0.1,0.3-0.1,0.7c0,0.3-0.1,0.8-0.1,0.9
			c0,0.1,0,0.3-0.1,0.3c-0.1,0-0.1-0.1-0.1-0.1c0-0.1,0-0.3-0.1-0.4c-0.1-0.2-0.2-0.4-0.7-0.5c-0.4,0-1.7-0.1-1.9-0.1
			c-0.1,0-0.1,0-0.1,0.1v1.2c0,0.5,0,2,0,2.3c0,0.9,0.2,1.1,1.6,1.1c0.3,0,0.9,0,1.3-0.1c0.3-0.1,0.5-0.4,0.6-1
			c0-0.1,0.1-0.2,0.1-0.2c0.1,0,0.1,0.1,0.1,0.2c0,0.1-0.1,1-0.2,1.3c-0.1,0.3-0.2,0.3-0.7,0.3c-1,0-1.7,0-2.3,0c-0.5,0-0.8,0-1,0
			c0,0-0.3,0-0.5,0c-0.3,0-0.6,0-0.8,0c-0.1,0-0.2,0-0.2-0.1c0,0,0-0.1,0.1-0.1c0.1,0,0.3,0,0.4-0.1c0.3-0.1,0.3-0.3,0.4-0.7
			c0.1-0.6,0.1-1.6,0.1-2.9V62z"/>
		<path fill="#010202" d="M140.2,67c-1.3-1.2-1.6-2.7-1.6-4c0-0.9,0.3-2.5,1.5-3.6c0.8-0.8,2-1.4,4.1-1.4c0.5,0,1.3,0,1.9,0.2
			c0.5,0.1,0.9,0.2,1.4,0.2c0.1,0,0.2,0.1,0.2,0.1c0,0.1,0,0.3-0.1,0.7c0,0.4,0,1.2,0,1.4c0,0.2,0,0.3-0.1,0.3
			c-0.1,0-0.1-0.1-0.1-0.3c0-0.5-0.2-1.1-0.6-1.4c-0.5-0.4-1.5-0.8-2.7-0.8c-1.8,0-2.6,0.5-3.1,1c-1,0.9-1.2,2.1-1.2,3.5
			c0,2.6,2,4.9,4.8,4.9c1,0,1.8-0.1,2.3-0.7c0.3-0.3,0.5-0.9,0.5-1.1c0-0.1,0.1-0.2,0.1-0.2c0.1,0,0.1,0.1,0.1,0.2
			c0,0.1-0.2,1.3-0.3,1.7c-0.1,0.3-0.1,0.3-0.3,0.4c-0.5,0.2-1.6,0.3-2.4,0.3C142.6,68.4,141.2,67.9,140.2,67z"/>
		<path fill="#010202" d="M154.4,57.9c3,0,5.3,1.9,5.3,5c0,3-2.1,5.5-5.3,5.5c-3.7,0-5.2-2.8-5.2-5.3
			C149.2,61,150.8,57.9,154.4,57.9z M154.7,67.9c1.2,0,3.7-0.7,3.7-4.6c0-3.2-2-4.9-4.1-4.9c-2.2,0-3.9,1.5-3.9,4.4
			C150.4,65.9,152.3,67.9,154.7,67.9z"/>
		<path fill="#010202" d="M162.9,66.4c0,1.1,0.2,1.4,0.5,1.6c0.3,0.1,0.5,0.1,0.7,0.1c0.1,0,0.1,0,0.1,0.1c0,0.1-0.1,0.1-0.2,0.1
			c-0.8,0-1.3,0-1.4,0c-0.1,0-0.7,0-1.3,0c-0.1,0-0.2,0-0.2-0.1c0-0.1,0-0.1,0.1-0.1c0.1,0,0.3,0,0.5-0.1c0.3-0.1,0.4-0.5,0.4-1.7
			l0-7.7c0-0.5,0-0.7,0.1-0.7c0.1,0,0.3,0.3,0.5,0.4c0.2,0.2,2.2,2.4,4.3,4.6c1.3,1.4,2.8,3,3.2,3.5l-0.1-6.8c0-0.9-0.1-1.2-0.5-1.3
			c-0.2-0.1-0.5-0.1-0.7-0.1c-0.1,0-0.1,0-0.1-0.1c0-0.1,0.1-0.1,0.3-0.1c0.6,0,1.2,0,1.4,0c0.1,0,0.6,0,1.1,0c0.1,0,0.2,0,0.2,0.1
			c0,0.1-0.1,0.1-0.1,0.1c-0.1,0-0.2,0-0.3,0c-0.4,0.1-0.5,0.4-0.5,1.2l0,7.8c0,0.9,0,0.9-0.1,0.9c-0.1,0-0.3-0.1-1-0.9
			c-0.1-0.1-2.1-2.1-3.5-3.6c-1.6-1.7-3.1-3.4-3.5-3.8L162.9,66.4z"/>
		<path fill="#010202" d="M174.3,68.1c-0.2-0.1-0.2-0.1-0.2-0.5c0-0.7,0.1-1.2,0.1-1.4c0-0.1,0-0.2,0.1-0.2c0.1,0,0.1,0,0.1,0.1
			c0,0.1,0,0.3,0,0.5c0.2,1,1.1,1.4,2,1.4c1.3,0,1.9-0.9,1.9-1.8c0-0.9-0.4-1.5-1.5-2.4l-0.6-0.5c-1.4-1.2-1.7-2-1.7-2.9
			c0-1.4,1.1-2.4,2.8-2.4c0.5,0,0.9,0.1,1.2,0.1c0.3,0.1,0.4,0.1,0.5,0.1c0.1,0,0.1,0,0.1,0.1c0,0.1-0.1,0.5-0.1,1.4
			c0,0.2,0,0.3-0.1,0.3c-0.1,0-0.1-0.1-0.1-0.2c0-0.2-0.1-0.5-0.2-0.7c-0.1-0.1-0.4-0.7-1.7-0.7c-0.9,0-1.6,0.6-1.6,1.6
			c0,0.8,0.3,1.2,1.6,2.2l0.4,0.3c1.6,1.2,2,2.1,2,3.1c0,0.5-0.2,1.6-1.1,2.2c-0.6,0.4-1.3,0.6-2,0.6
			C175.5,68.4,174.9,68.3,174.3,68.1z"/>
		<path fill="#010202" d="M182,62c0-2.1,0-2.5,0-2.9c0-0.5-0.1-0.7-0.6-0.8c-0.1,0-0.3,0-0.5,0c-0.1,0-0.1,0-0.1-0.1
			c0-0.1,0.1-0.1,0.2-0.1c0.6,0,1.4,0,1.5,0c0.1,0,0.9,0,1.3,0c0.1,0,0.2,0,0.2,0.1c0,0.1-0.1,0.1-0.1,0.1c-0.1,0-0.2,0-0.3,0
			c-0.4,0.1-0.5,0.3-0.5,0.8c0,0.4,0,0.8,0,2.9v1.9c0,1.9,0.4,2.8,1,3.3c0.7,0.6,1.3,0.7,2,0.7c0.8,0,1.6-0.4,2.1-1
			c0.6-0.8,0.8-1.9,0.8-3.3V62c0-2.1,0-2.5,0-2.9c0-0.5-0.1-0.7-0.6-0.8c-0.1,0-0.3,0-0.5,0c-0.1,0-0.1,0-0.1-0.1
			c0-0.1,0.1-0.1,0.2-0.1c0.6,0,1.3,0,1.4,0c0.1,0,0.7,0,1.1,0c0.1,0,0.2,0,0.2,0.1c0,0.1-0.1,0.1-0.1,0.1c-0.1,0-0.2,0-0.3,0
			c-0.4,0.1-0.5,0.3-0.5,0.8c0,0.4,0,0.8,0,2.9v1.4c0,1.4-0.2,3-1.2,4c-1,0.9-2,1-2.8,1c-0.5,0-1.8-0.1-2.8-0.9
			c-0.7-0.6-1.2-1.6-1.2-3.5V62z"/>
		<path fill="#010202" d="M195,64.4c0,2,0.1,2.8,0.3,3.1c0.2,0.2,0.6,0.3,1.6,0.3c0.7,0,1.3,0,1.6-0.4c0.2-0.2,0.3-0.5,0.3-0.8
			c0-0.1,0-0.2,0.1-0.2c0.1,0,0.1,0.1,0.1,0.2c0,0.1-0.1,0.9-0.2,1.3c-0.1,0.3-0.1,0.4-0.8,0.4c-1,0-1.7,0-2.2,0c-0.6,0-1,0-1.4,0
			c-0.1,0-0.3,0-0.5,0c-0.3,0-0.6,0-0.8,0c-0.1,0-0.2,0-0.2-0.1c0,0,0-0.1,0.1-0.1c0.1,0,0.3,0,0.4-0.1c0.3-0.1,0.3-0.3,0.4-0.7
			c0.1-0.6,0.1-1.6,0.1-2.9V62c0-2.1,0-2.5,0-2.9c0-0.5-0.1-0.7-0.6-0.8c-0.1,0-0.3,0-0.5,0c-0.1,0-0.1,0-0.1-0.1
			c0-0.1,0.1-0.1,0.2-0.1c0.6,0,1.4,0,1.5,0c0.1,0,1,0,1.4,0c0.1,0,0.2,0,0.2,0.1c0,0.1-0.1,0.1-0.1,0.1c-0.1,0-0.3,0-0.4,0
			c-0.4,0.1-0.5,0.3-0.5,0.8c0,0.4,0,0.8,0,2.9V64.4z"/>
		<path fill="#010202" d="M203.8,64.4c0,1.3,0,2.3,0.1,2.9c0,0.4,0.1,0.7,0.5,0.7c0.2,0,0.5,0.1,0.6,0.1c0.1,0,0.1,0,0.1,0.1
			c0,0.1-0.1,0.1-0.2,0.1c-0.7,0-1.6,0-1.6,0s-0.9,0-1.3,0c-0.1,0-0.2,0-0.2-0.1c0,0,0-0.1,0.1-0.1c0.1,0,0.3,0,0.4-0.1
			c0.3-0.1,0.3-0.3,0.4-0.7c0.1-0.6,0.1-1.6,0.1-2.9v-5.7l-2,0c-0.8,0-1.1,0.1-1.4,0.4c-0.1,0.2-0.2,0.3-0.2,0.4
			c0,0.1-0.1,0.1-0.1,0.1c0,0-0.1,0-0.1-0.1c0-0.1,0.3-1.3,0.3-1.4c0-0.1,0.1-0.3,0.1-0.3c0.1,0,0.2,0.1,0.6,0.2
			c0.4,0,0.9,0.1,1.1,0.1h5c0.4,0,0.7,0,0.9-0.1c0.2,0,0.3-0.1,0.4-0.1c0.1,0,0.1,0.1,0.1,0.2c0,0.4,0,1.3,0,1.5
			c0,0.1,0,0.2-0.1,0.2c-0.1,0-0.1,0-0.1-0.2l0-0.1c0-0.4-0.4-0.7-1.6-0.7l-1.7,0V64.4z"/>
		<path fill="#010202" d="M211.3,64.4c0,1.3,0,2.3,0.1,2.9c0,0.4,0.1,0.7,0.5,0.7c0.2,0,0.5,0.1,0.6,0.1c0.1,0,0.1,0,0.1,0.1
			c0,0.1-0.1,0.1-0.2,0.1c-0.7,0-1.6,0-1.6,0s-0.9,0-1.3,0c-0.1,0-0.2,0-0.2-0.1c0,0,0-0.1,0.1-0.1c0.1,0,0.3,0,0.4-0.1
			c0.3-0.1,0.3-0.3,0.4-0.7c0.1-0.6,0.1-1.6,0.1-2.9V62c0-2.1,0-2.5,0-2.9c0-0.5-0.2-0.7-0.5-0.7c-0.1,0-0.3-0.1-0.4-0.1
			c-0.1,0-0.1,0-0.1-0.1c0-0.1,0.1-0.1,0.2-0.1c0.4,0,1.3,0,1.3,0s0.9,0,1.3,0c0.1,0,0.2,0,0.2,0.1c0,0.1-0.1,0.1-0.1,0.1
			c-0.1,0-0.2,0-0.3,0c-0.4,0.1-0.5,0.3-0.5,0.8c0,0.4,0,0.8,0,2.9V64.4z"/>
		<path fill="#010202" d="M216.4,66.4c0,1.1,0.2,1.4,0.5,1.6c0.3,0.1,0.5,0.1,0.7,0.1c0.1,0,0.1,0,0.1,0.1c0,0.1-0.1,0.1-0.2,0.1
			c-0.8,0-1.3,0-1.4,0c-0.1,0-0.7,0-1.3,0c-0.1,0-0.2,0-0.2-0.1c0-0.1,0-0.1,0.1-0.1c0.1,0,0.3,0,0.5-0.1c0.3-0.1,0.4-0.5,0.4-1.7
			l0-7.7c0-0.5,0-0.7,0.1-0.7c0.1,0,0.3,0.3,0.5,0.4c0.2,0.2,2.2,2.4,4.3,4.6c1.3,1.4,2.8,3,3.2,3.5l-0.1-6.8c0-0.9-0.1-1.2-0.5-1.3
			c-0.2-0.1-0.5-0.1-0.7-0.1c-0.1,0-0.1,0-0.1-0.1c0-0.1,0.1-0.1,0.3-0.1c0.6,0,1.2,0,1.4,0c0.1,0,0.6,0,1.1,0c0.1,0,0.2,0,0.2,0.1
			c0,0.1-0.1,0.1-0.1,0.1c-0.1,0-0.2,0-0.3,0c-0.4,0.1-0.5,0.4-0.5,1.2l0,7.8c0,0.9,0,0.9-0.1,0.9c-0.1,0-0.3-0.1-1-0.9
			c-0.1-0.1-2.1-2.1-3.5-3.6c-1.5-1.7-3.1-3.4-3.5-3.8L216.4,66.4z"/>
		<path fill="#010202" d="M234.9,64.8c0-1.1-0.1-1.2-0.6-1.4c-0.1,0-0.3,0-0.5,0c-0.1,0-0.1,0-0.1-0.1c0-0.1,0.1-0.1,0.2-0.1
			c0.6,0,1.4,0,1.5,0c0.1,0,0.9,0,1.3,0c0.1,0,0.2,0,0.2,0.1c0,0.1-0.1,0.1-0.1,0.1c-0.1,0-0.2,0-0.3,0c-0.4,0.1-0.5,0.3-0.5,0.8
			c0,0.4,0,0.8,0,1.4v1.5c0,0.6,0,0.6-0.2,0.7c-0.9,0.5-2.1,0.6-2.8,0.6c-1,0-2.9-0.1-4.4-1.4c-0.8-0.7-1.6-2.1-1.6-3.8
			c0-2.1,1-3.6,2.2-4.4c1.2-0.7,2.5-0.8,3.6-0.8c0.8,0,1.8,0.2,2,0.2c0.3,0.1,0.7,0.1,1.1,0.1c0.1,0,0.2,0.1,0.2,0.1
			c0,0.2-0.1,0.6-0.1,1.9c0,0.2,0,0.3-0.1,0.3c-0.1,0-0.1-0.1-0.1-0.2c0-0.2-0.1-0.6-0.3-0.9c-0.3-0.5-1.4-1.1-3.1-1.1
			c-0.8,0-1.8,0.1-2.9,0.9c-0.8,0.6-1.3,1.8-1.3,3.4c0,1.9,0.9,3.2,1.4,3.7c1.1,1,2.3,1.4,3.5,1.4c0.5,0,1.2-0.1,1.5-0.3
			c0.2-0.1,0.3-0.2,0.3-0.5V64.8z"/>
		<path fill="#010202" d="M244.8,66.4c0,1.1,0.2,1.4,0.5,1.6c0.3,0.1,0.5,0.1,0.7,0.1c0.1,0,0.1,0,0.1,0.1c0,0.1-0.1,0.1-0.2,0.1
			c-0.8,0-1.3,0-1.4,0c-0.1,0-0.7,0-1.3,0c-0.1,0-0.2,0-0.2-0.1c0-0.1,0-0.1,0.1-0.1c0.1,0,0.3,0,0.5-0.1c0.3-0.1,0.4-0.5,0.4-1.7
			l0-7.7c0-0.5,0-0.7,0.1-0.7c0.1,0,0.3,0.3,0.5,0.4c0.2,0.2,2.2,2.4,4.3,4.6c1.3,1.4,2.8,3,3.2,3.5l-0.1-6.8c0-0.9-0.1-1.2-0.5-1.3
			c-0.2-0.1-0.5-0.1-0.7-0.1c-0.1,0-0.1,0-0.1-0.1c0-0.1,0.1-0.1,0.3-0.1c0.6,0,1.2,0,1.4,0c0.1,0,0.6,0,1.1,0c0.1,0,0.2,0,0.2,0.1
			c0,0.1-0.1,0.1-0.1,0.1c-0.1,0-0.2,0-0.3,0c-0.4,0.1-0.5,0.4-0.5,1.2l0,7.8c0,0.9,0,0.9-0.1,0.9c-0.1,0-0.3-0.1-1-0.9
			c-0.1-0.1-2.1-2.1-3.5-3.6c-1.6-1.7-3.1-3.4-3.5-3.8L244.8,66.4z"/>
		<path fill="#010202" d="M257,62c0-2.1,0-2.5,0-2.9c0-0.5-0.1-0.7-0.6-0.8c-0.1,0-0.3,0-0.5,0c-0.1,0-0.1,0-0.1-0.1
			c0-0.1,0.1-0.1,0.2-0.1c0.3,0,0.7,0,1,0l0.5,0c0.1,0,2.8,0,3.1,0c0.3,0,0.5,0,0.6-0.1c0.1,0,0.1-0.1,0.2-0.1c0,0,0.1,0.1,0.1,0.1
			c0,0.1-0.1,0.3-0.1,0.6c0,0.1,0,0.7-0.1,0.9c0,0.1,0,0.1-0.1,0.1c-0.1,0-0.1-0.1-0.1-0.2c0-0.1,0-0.3-0.1-0.5
			c-0.1-0.2-0.2-0.4-0.9-0.5c-0.2,0-1.7,0-1.8,0c-0.1,0-0.1,0-0.1,0.1v3.7c0,0.1,0,0.1,0.1,0.1c0.2,0,1.8,0,2.1,0
			c0.3,0,0.5-0.1,0.6-0.2c0.1-0.1,0.1-0.2,0.2-0.2c0,0,0.1,0,0.1,0.1c0,0.1-0.1,0.3-0.1,0.7c0,0.3-0.1,0.8-0.1,0.9
			c0,0.1,0,0.3-0.1,0.3c-0.1,0-0.1-0.1-0.1-0.1c0-0.1,0-0.3-0.1-0.4c-0.1-0.2-0.2-0.4-0.7-0.5c-0.4,0-1.7-0.1-1.9-0.1
			c-0.1,0-0.1,0-0.1,0.1v1.2c0,0.5,0,2,0,2.3c0,0.9,0.2,1.1,1.6,1.1c0.3,0,0.9,0,1.3-0.1c0.3-0.1,0.5-0.4,0.6-1
			c0-0.1,0.1-0.2,0.1-0.2c0.1,0,0.1,0.1,0.1,0.2c0,0.1-0.1,1-0.2,1.3c-0.1,0.3-0.2,0.3-0.7,0.3c-1,0-1.7,0-2.3,0c-0.5,0-0.8,0-1,0
			c0,0-0.3,0-0.5,0c-0.3,0-0.6,0-0.8,0c-0.1,0-0.2,0-0.2-0.1c0,0,0-0.1,0.1-0.1c0.1,0,0.3,0,0.4-0.1c0.3-0.1,0.3-0.3,0.4-0.7
			c0.1-0.6,0.1-1.6,0.1-2.9V62z"/>
		<path fill="#010202" d="M268,64.4c0,1.3,0,2.3,0.1,2.9c0,0.4,0.1,0.7,0.5,0.7c0.2,0,0.5,0.1,0.6,0.1c0.1,0,0.1,0,0.1,0.1
			c0,0.1-0.1,0.1-0.2,0.1c-0.7,0-1.6,0-1.6,0c-0.1,0-0.9,0-1.3,0c-0.1,0-0.2,0-0.2-0.1c0,0,0-0.1,0.1-0.1c0.1,0,0.3,0,0.4-0.1
			c0.3-0.1,0.3-0.3,0.4-0.7c0.1-0.6,0.1-1.6,0.1-2.9v-5.7l-2,0c-0.8,0-1.1,0.1-1.4,0.4c-0.1,0.2-0.2,0.3-0.2,0.4
			c0,0.1-0.1,0.1-0.1,0.1c0,0-0.1,0-0.1-0.1c0-0.1,0.3-1.3,0.3-1.4c0-0.1,0.1-0.3,0.1-0.3c0.1,0,0.2,0.1,0.6,0.2
			c0.4,0,0.9,0.1,1.1,0.1h5c0.4,0,0.7,0,0.9-0.1c0.2,0,0.3-0.1,0.4-0.1c0.1,0,0.1,0.1,0.1,0.2c0,0.4,0,1.3,0,1.5
			c0,0.1,0,0.2-0.1,0.2c-0.1,0-0.1,0-0.1-0.2l0-0.1c0-0.4-0.4-0.7-1.6-0.7l-1.7,0V64.4z"/>
		<path fill="#010202" d="M282.8,66.4L282.8,66.4c0.4-1.2,1.6-5.1,2.1-6.8c0.1-0.5,0.1-0.7,0.1-0.9c0-0.2-0.1-0.4-0.8-0.4
			c-0.1,0-0.1,0-0.1-0.1c0-0.1,0.1-0.1,0.2-0.1c0.7,0,1.2,0,1.4,0c0.1,0,0.7,0,1.1,0c0.1,0,0.2,0,0.2,0.1c0,0.1,0,0.1-0.1,0.1
			c-0.1,0-0.3,0-0.5,0.1c-0.4,0.1-0.6,0.7-0.9,1.4c-0.6,1.7-1.9,5.9-2.5,7.4c-0.3,1-0.4,1.2-0.6,1.2c-0.1,0-0.2-0.2-0.4-0.7
			l-2.6-7.4h0c-0.5,1.3-2.3,6.2-2.8,7.4c-0.2,0.6-0.3,0.7-0.4,0.7c-0.1,0-0.2-0.1-0.5-1.1l-2.4-7.9c-0.2-0.7-0.4-0.9-0.7-1
			c-0.2-0.1-0.5-0.1-0.6-0.1c-0.1,0-0.1,0-0.1-0.1c0-0.1,0.1-0.1,0.2-0.1c0.7,0,1.4,0,1.6,0c0.1,0,0.7,0,1.4,0c0.2,0,0.2,0,0.2,0.1
			c0,0.1-0.1,0.1-0.1,0.1c-0.1,0-0.4,0-0.5,0.1c-0.1,0-0.2,0.1-0.2,0.3c0,0.2,0.1,0.6,0.3,1.2c0.2,0.9,1.6,5.8,1.8,6.5h0l2.8-7.6
			c0.2-0.5,0.3-0.6,0.3-0.6c0.1,0,0.2,0.2,0.3,0.6L282.8,66.4z"/>
		<path fill="#010202" d="M292.9,57.9c3,0,5.3,1.9,5.3,5c0,3-2.1,5.5-5.3,5.5c-3.7,0-5.2-2.8-5.2-5.3
			C287.7,61,289.2,57.9,292.9,57.9z M293.2,67.9c1.2,0,3.7-0.7,3.7-4.6c0-3.2-2-4.9-4.1-4.9c-2.2,0-3.9,1.5-3.9,4.4
			C288.9,65.9,290.8,67.9,293.2,67.9z"/>
		<path fill="#010202" d="M301,62c0-2.1,0-2.5,0-2.9c0-0.5-0.1-0.7-0.6-0.8c-0.1,0-0.3,0-0.5,0c-0.1,0-0.1,0-0.1-0.1
			c0-0.1,0.1-0.1,0.2-0.1c0.6,0,1.4,0,1.5,0c0.1,0,1.2,0,1.6,0c0.8,0,1.7,0.1,2.4,0.6c0.3,0.2,0.9,0.9,0.9,1.8c0,1-0.4,2-1.6,3.1
			c1.1,1.4,2,2.6,2.8,3.4c0.7,0.8,1.3,0.9,1.6,1c0.3,0,0.4,0,0.5,0c0.1,0,0.1,0,0.1,0.1c0,0.1-0.1,0.1-0.3,0.1h-0.9
			c-0.7,0-1.1-0.1-1.4-0.3c-0.6-0.3-1-1-1.8-2c-0.6-0.7-1.2-1.6-1.5-2c-0.1-0.1-0.1-0.1-0.2-0.1l-1.6,0c-0.1,0-0.1,0-0.1,0.1v0.3
			c0,1.3,0,2.3,0.1,2.9c0,0.4,0.1,0.7,0.5,0.7c0.2,0,0.5,0.1,0.6,0.1c0.1,0,0.1,0,0.1,0.1c0,0.1-0.1,0.1-0.2,0.1c-0.7,0-1.6,0-1.6,0
			c0,0-0.9,0-1.3,0c-0.1,0-0.2,0-0.2-0.1c0,0,0-0.1,0.1-0.1c0.1,0,0.3,0,0.4-0.1c0.3-0.1,0.3-0.3,0.4-0.7c0.1-0.6,0.1-1.6,0.1-2.9
			V62z M302.1,63.2c0,0.1,0,0.1,0.1,0.2c0.2,0.1,0.8,0.2,1.4,0.2c0.3,0,0.7,0,1-0.3c0.5-0.3,0.8-1,0.8-2.1c0-1.7-0.9-2.7-2.3-2.7
			c-0.4,0-0.8,0-0.9,0.1c-0.1,0-0.1,0.1-0.1,0.2V63.2z"/>
		<path fill="#010202" d="M311.1,62c0-2.1,0-2.5,0-2.9c0-0.5-0.1-0.7-0.6-0.8c-0.1,0-0.3,0-0.5,0c-0.1,0-0.1,0-0.1-0.1
			c0-0.1,0.1-0.1,0.2-0.1c0.6,0,1.4,0,1.5,0c0.1,0,0.9,0,1.3,0c0.1,0,0.2,0,0.2,0.1c0,0.1-0.1,0.1-0.1,0.1c-0.1,0-0.2,0-0.3,0
			c-0.4,0.1-0.5,0.3-0.5,0.8c0,0.4,0,0.8,0,2.9v0.8h0.1c0.2-0.3,2.6-2.7,3.1-3.2c0.4-0.4,0.7-0.7,0.7-1c0-0.2-0.1-0.2-0.2-0.3
			c-0.1,0-0.1-0.1-0.1-0.1c0-0.1,0.1-0.1,0.2-0.1c0.3,0,0.7,0,1,0c0.1,0,0.9,0,1.3,0c0.1,0,0.2,0,0.2,0.1c0,0.1,0,0.1-0.1,0.1
			c-0.2,0-0.5,0.1-0.7,0.2c-0.5,0.2-0.8,0.6-1.4,1.1c-0.3,0.3-2.7,2.6-2.9,2.9c0.3,0.4,3.1,3.3,3.7,3.8c1.1,1,1.3,1.3,2,1.5
			c0.3,0.1,0.7,0.2,0.8,0.2c0.1,0,0.2,0,0.2,0.1c0,0.1-0.1,0.1-0.3,0.1h-0.7c-0.4,0-0.6,0-0.9,0c-0.7-0.1-1-0.4-1.6-0.8
			c-0.6-0.5-3.4-3.6-4.1-4.3h-0.1v1.3c0,1.3,0,2.3,0.1,2.9c0,0.4,0.1,0.7,0.5,0.7c0.2,0,0.4,0.1,0.5,0.1c0.1,0,0.1,0,0.1,0.1
			c0,0.1-0.1,0.1-0.2,0.1c-0.7,0-1.4,0-1.5,0c-0.1,0-0.9,0-1.3,0c-0.1,0-0.2,0-0.2-0.1c0,0,0-0.1,0.1-0.1c0.1,0,0.3,0,0.4-0.1
			c0.3-0.1,0.3-0.3,0.4-0.7c0.1-0.6,0.1-1.6,0.1-2.9V62z"/>
		<path fill="#010202" d="M320.3,68.1c-0.2-0.1-0.2-0.1-0.2-0.5c0-0.7,0.1-1.2,0.1-1.4c0-0.1,0-0.2,0.1-0.2c0.1,0,0.1,0,0.1,0.1
			c0,0.1,0,0.3,0,0.5c0.2,1,1.1,1.4,2,1.4c1.3,0,1.9-0.9,1.9-1.8c0-0.9-0.4-1.5-1.5-2.4l-0.6-0.5c-1.4-1.2-1.7-2-1.7-2.9
			c0-1.4,1.1-2.4,2.8-2.4c0.5,0,0.9,0.1,1.2,0.1c0.3,0.1,0.4,0.1,0.5,0.1c0.1,0,0.1,0,0.1,0.1c0,0.1-0.1,0.5-0.1,1.4
			c0,0.2,0,0.3-0.1,0.3c-0.1,0-0.1-0.1-0.1-0.2c0-0.2-0.1-0.5-0.2-0.7c-0.1-0.1-0.4-0.7-1.7-0.7c-0.9,0-1.6,0.6-1.6,1.6
			c0,0.8,0.3,1.2,1.6,2.2l0.4,0.3c1.6,1.2,2,2.1,2,3.1c0,0.5-0.2,1.6-1.1,2.2c-0.6,0.4-1.3,0.6-2,0.6
			C321.5,68.4,320.9,68.3,320.3,68.1z"/>
	</g>
	<g>
		<path fill="#010202" d="M100.4,43.7c-4.3-3.8-5.3-8.8-5.3-13c0-2.9,1-8.1,4.9-12c2.6-2.6,6.6-4.7,13.4-4.7c1.8,0,4.2,0.1,6.4,0.5
			c1.7,0.3,3.1,0.6,4.5,0.7c0.5,0,0.6,0.2,0.6,0.5c0,0.4-0.1,0.9-0.2,2.5c-0.1,1.4-0.1,3.9-0.1,4.5c0,0.7-0.1,0.9-0.4,0.9
			c-0.3,0-0.4-0.3-0.4-0.9c0-1.7-0.7-3.5-1.8-4.5c-1.5-1.3-4.9-2.5-8.8-2.5c-5.8,0-8.6,1.7-10.1,3.2c-3.2,3.1-3.9,7-3.9,11.5
			c0,8.4,6.5,16.1,15.8,16.1c3.3,0,5.9-0.4,7.6-2.2c0.9-1,1.5-2.9,1.6-3.7c0.1-0.5,0.2-0.7,0.4-0.7c0.2,0,0.3,0.3,0.3,0.7
			c0,0.3-0.5,4.1-1,5.6c-0.3,0.8-0.4,0.9-1.1,1.3c-1.8,0.7-5.1,1-7.9,1C108.3,48.4,103.9,46.8,100.4,43.7z"/>
		<path fill="#010202" d="M135.3,43.7c-4.3-3.8-5.3-8.8-5.3-13c0-2.9,1-8.1,4.9-12c2.6-2.6,6.6-4.7,13.4-4.7c1.8,0,4.2,0.1,6.4,0.5
			c1.7,0.3,3.1,0.6,4.5,0.7c0.5,0,0.6,0.2,0.6,0.5c0,0.4-0.1,0.9-0.2,2.5c-0.1,1.4-0.1,3.9-0.1,4.5c0,0.7-0.1,0.9-0.4,0.9
			c-0.3,0-0.4-0.3-0.4-0.9c0-1.7-0.7-3.5-1.8-4.5c-1.5-1.3-4.9-2.5-8.8-2.5c-5.8,0-8.6,1.7-10.1,3.2c-3.2,3.1-3.9,7-3.9,11.5
			c0,8.4,6.5,16.1,15.8,16.1c3.3,0,5.9-0.4,7.6-2.2c0.9-1,1.5-2.9,1.6-3.7c0.1-0.5,0.2-0.7,0.4-0.7c0.2,0,0.3,0.3,0.3,0.7
			c0,0.3-0.5,4.1-1,5.6c-0.3,0.8-0.4,0.9-1.1,1.3c-1.8,0.7-5.1,1-7.9,1C143.2,48.4,138.8,46.8,135.3,43.7z"/>
		<path fill="#010202" d="M171.5,41.8c0.1,3.6,0.5,4.7,1.7,5.1c0.8,0.2,1.8,0.3,2.2,0.3c0.2,0,0.4,0.1,0.4,0.3
			c0,0.3-0.3,0.4-0.8,0.4c-2.5,0-4.3-0.1-4.7-0.1s-2.2,0.1-4.2,0.1c-0.4,0-0.7,0-0.7-0.4c0-0.2,0.1-0.3,0.4-0.3c0.4,0,1.1,0,1.8-0.3
			c1.1-0.3,1.3-1.6,1.3-5.6l0-25.1c0-1.7,0.1-2.2,0.5-2.2c0.4,0,1.1,1,1.5,1.4c0.7,0.7,7.2,7.8,14,15.1c4.3,4.7,9.1,10,10.5,11.5
			l-0.5-22.3c0-2.9-0.4-3.8-1.7-4.2c-0.8-0.2-1.8-0.2-2.2-0.2c-0.3,0-0.4-0.1-0.4-0.3c0-0.3,0.4-0.3,0.9-0.3c2,0,4.1,0.1,4.6,0.1
			s1.9-0.1,3.7-0.1c0.5,0,0.8,0,0.8,0.3c0,0.2-0.2,0.3-0.5,0.3c-0.2,0-0.5,0-1.1,0.1c-1.4,0.3-1.6,1.3-1.6,3.9L197.5,45
			c0,2.9-0.1,3.1-0.4,3.1c-0.4,0-0.9-0.5-3.2-2.8c-0.5-0.4-6.8-6.9-11.5-11.9c-5.1-5.5-10.1-11-11.5-12.6L171.5,41.8z"/>
	</g>
</g>
</svg>
