<?xml version="1.0" encoding="utf-8"?>
<!-- Generator: Adobe Illustrator 18.1.1, SVG Export Plug-In . SVG Version: 6.00 Build 0)  -->
<svg version="1.1" id="Layer_1" xmlns="http://www.w3.org/2000/svg" xmlns:xlink="http://www.w3.org/1999/xlink" x="0px" y="0px"
	 width="110px" height="80px" viewBox="0 0 110 80" enable-background="new 0 0 110 80" xml:space="preserve">
<path id="user-13-icon" fill="#010202" d="M106.8,74.5H79.7c0-29.5-14.8-15.5-14.8-41.4c0-9.3,6.1-14.4,14-14.4
	c11.6,0,19.7,11.1,8.7,31.8c-3.6,6.8,3.8,8.4,11.9,10.3C107.4,62.6,106.8,66.8,106.8,74.5z M62.7,57.2c-10.1-2.3-19.4-4.4-14.9-12.9
	c13.8-26.1,3.7-40-10.9-40C22,4.3,12.1,18.8,26,44.3c4.7,8.6-5.1,10.6-14.9,12.9C1,59.5,1.8,64.8,1.8,74.5H72
	C72,64.8,72.8,59.5,62.7,57.2z"/>
</svg>
