<?xml version="1.0" encoding="utf-8"?>
<!-- Generator: Adobe Illustrator 18.1.1, SVG Export Plug-In . SVG Version: 6.00 Build 0)  -->
<svg version="1.1" id="Layer_1" xmlns="http://www.w3.org/2000/svg" xmlns:xlink="http://www.w3.org/1999/xlink" x="0px" y="0px"
	 width="20px" height="20px" viewBox="-489 491 20 20" enable-background="new -489 491 20 20" xml:space="preserve">
<g>
	<path fill="#69C1B6" d="M-470,501.4c0,1.5-0.4,3-1.1,4.6c-0.7,1.6-1.7,2.9-3,4l-2.5-1.6c0.8-1.1,1.3-2.2,1.7-3.3
		c0.3-1.1,0.5-2.3,0.5-3.6v-4h4.4V501.4z M-477.3,501.4c0,1.5-0.4,3-1.1,4.6c-0.7,1.6-1.7,2.9-3,4l-2.5-1.6c0.7-1.1,1.3-2.2,1.6-3.3
		c0.4-1.1,0.5-2.3,0.5-3.6v-4h4.4v3.9H-477.3z"/>
</g>
</svg>
