<?xml version="1.0" encoding="utf-8"?>
<!-- Generator: Adobe Illustrator 18.1.1, SVG Export Plug-In . SVG Version: 6.00 Build 0)  -->
<svg version="1.1" id="Layer_1" xmlns="http://www.w3.org/2000/svg" xmlns:xlink="http://www.w3.org/1999/xlink" x="0px" y="0px"
	 width="20px" height="20px" viewBox="0 0 20 20" enable-background="new 0 0 20 20" xml:space="preserve">
<g>
	<path fill="#69C1B6" d="M3.1,8.7c0-1.5,0.4-3,1.1-4.6s1.7-2.9,3-4l2.5,1.6C8.9,2.8,8.4,3.9,8,5C7.7,6.1,7.5,7.3,7.5,8.6v4H3.1V8.7z
		 M10.4,8.7c0-1.5,0.4-3,1.1-4.6c0.7-1.6,1.7-2.9,3-4L17,1.7c-0.7,1.1-1.3,2.2-1.6,3.3c-0.4,1.1-0.5,2.3-0.5,3.6v4h-4.4V8.7z"/>
</g>
</svg>
