<?xml version="1.0" encoding="utf-8"?>
<!-- Generator: Adobe Illustrator 18.1.1, SVG Export Plug-In . SVG Version: 6.00 Build 0)  -->
<svg version="1.1" id="Layer_1" xmlns="http://www.w3.org/2000/svg" xmlns:xlink="http://www.w3.org/1999/xlink" x="0px" y="0px"
	 width="110px" height="80px" viewBox="0 0 110 80" enable-background="new 0 0 110 80" xml:space="preserve">
<path id="quote-15-icon" fill="#010202" d="M42.4,55.9C42.4,55.9,42.4,55.9,42.4,55.9c-4.5,2.7-14.3,5.5-21.2,6.8
	c2.6-5.1,5.4-12.1,5.3-17c-3.5-4.2-5.4-9.6-5.4-15c0-15.4,15-26.7,31.8-26.7c16.7,0,31.8,11.2,31.8,26.7c0,0.2,0,0.4,0,0.7
	c-1.9-1-4-1.9-6.3-2.5c-1.2-10.5-12.2-18.7-25.5-18.7c-14.1,0-25.6,9.2-25.6,20.6c0,6,2.6,9.7,6.2,13.4C32.8,49.6,31,54.3,31,54.3
	s5.3-1.4,11.2-4.9C42,51.7,42,53.8,42.4,55.9z M88.2,62.4c2.4-2.9,3.7-6.6,3.7-10.3c0-10.6-10.3-18.4-21.9-18.4
	c-11.5,0-21.9,7.7-21.9,18.4c0,11.1,12.3,21.5,29.2,17.4c3.1,1.9,9.8,3.8,14.6,4.7C90,70.6,88.1,65.8,88.2,62.4z M68.9,51.3
	c0,4.6-2.9,7.8-7.2,8.6l-0.8-1.7c2-0.7,3.2-2.5,3.2-4.3h-3.3v-7.7h8.1C68.9,46.1,68.9,48.6,68.9,51.3z M80.2,51.3
	c0,4.6-2.9,7.8-7.2,8.6l-0.8-1.7c2-0.7,3.2-2.5,3.2-4.3h-3.3v-7.7h8.1C80.2,46.1,80.2,48.6,80.2,51.3z M51.9,31.8c0,0,0-2.5,0-5.4
	c0-4.8,3-8,7.4-8.9l0.8,1.8c-2,0.8-3.3,2.6-3.3,4.5h3.4v8H51.9z M40.2,31.8c0,0,0-2.5,0-5.4c0-4.8,3-8,7.4-8.9l0.8,1.8
	c-2,0.8-3.3,2.6-3.3,4.5h3.4v8H40.2z"/>
</svg>
