<?xml version="1.0" encoding="utf-8"?>
<!-- Generator: Adobe Illustrator 18.1.1, SVG Export Plug-In . SVG Version: 6.00 Build 0)  -->
<svg version="1.1" id="Layer_1" xmlns="http://www.w3.org/2000/svg" xmlns:xlink="http://www.w3.org/1999/xlink" x="0px" y="0px"
	 width="20px" height="20px" viewBox="0 0 20 20" enable-background="new 0 0 20 20" xml:space="preserve">
<g>
	<g>
		<defs>
			<rect id="SVGID_1_" x="-0.7" y="-0.7" width="21.4" height="21.4"/>
		</defs>
		<clipPath id="SVGID_2_">
			<use xlink:href="#SVGID_1_"  overflow="visible"/>
		</clipPath>
		<path clip-path="url(#SVGID_2_)" fill="#777777" d="M17.9,11.4C18,11,18,10.5,18,10c0-4.4-3.6-8-8-8C9.5,2,9,2,8.5,2.1
			C7.8,1.7,7,1.4,6.1,1.4c-2.6,0-4.7,2.1-4.7,4.7c0,0.9,0.3,1.7,0.7,2.5C2,9,2,9.5,2,10c0,4.4,3.6,8,8,8c0.5,0,1-0.1,1.5-0.1
			c0.7,0.4,1.5,0.7,2.4,0.7c2.6,0,4.7-2.1,4.7-4.7C18.6,13,18.4,12.1,17.9,11.4 M10.3,15.6c-2.3,0-4.6-1-4.6-2.8c0-0.5,0.4-1,0.9-1
			c1.3,0,1.3,2,3.5,2c1.5,0,2-0.8,2-1.4c0-2.1-6.5-0.8-6.5-4.7c0-2.1,1.7-3.6,4.4-3.4c2.6,0.2,4.1,1.3,4.3,2.4
			c0.1,0.7-0.4,1.2-1.2,1.2c-1.2,0-1.3-1.6-3.3-1.6c-0.9,0-1.7,0.4-1.7,1.2c0,1.7,6.5,0.7,6.5,4.5C14.6,14.2,12.9,15.6,10.3,15.6"/>
	</g>
</g>
</svg>
