<?xml version="1.0" encoding="utf-8"?>
<!-- Generator: Adobe Illustrator 18.1.1, SVG Export Plug-In . SVG Version: 6.00 Build 0)  -->
<svg version="1.1" id="Layer_1" xmlns="http://www.w3.org/2000/svg" xmlns:xlink="http://www.w3.org/1999/xlink" x="0px" y="0px"
	 width="20px" height="20px" viewBox="0 0 20 20" enable-background="new 0 0 20 20" xml:space="preserve">
<g>
	<g>
		<defs>
			<rect id="SVGID_1_" x="-1.2" y="-1.3" width="22.5" height="22.5"/>
		</defs>
		<clipPath id="SVGID_2_">
			<use xlink:href="#SVGID_1_"  overflow="visible"/>
		</clipPath>
		<path clip-path="url(#SVGID_2_)" fill="#777777" d="M19,4.3c-0.7,0.3-1.4,0.5-2.1,0.6c0.8-0.5,1.4-1.2,1.6-2.1
			c-0.7,0.4-1.5,0.7-2.4,0.9c-0.7-0.7-1.6-1.2-2.7-1.2c-2.4,0-4.2,2.2-3.6,4.6C6.8,7,4.1,5.5,2.2,3.3c-1,1.7-0.5,3.8,1.1,4.9
			C2.8,8.2,2.2,8,1.7,7.7c0,1.7,1.2,3.3,3,3.7c-0.5,0.1-1.1,0.2-1.7,0.1C3.5,13,4.8,14,6.5,14.1c-1.6,1.2-3.5,1.8-5.5,1.5
			c1.6,1.1,3.6,1.7,5.7,1.7c6.9,0,10.8-5.8,10.5-11C17.9,5.7,18.5,5.1,19,4.3"/>
	</g>
</g>
</svg>
