<?xml version="1.0" encoding="utf-8"?>
<!-- Generator: Adobe Illustrator 18.1.1, SVG Export Plug-In . SVG Version: 6.00 Build 0)  -->
<svg version="1.1" id="Layer_1" xmlns="http://www.w3.org/2000/svg" xmlns:xlink="http://www.w3.org/1999/xlink" x="0px" y="0px"
	 width="26.3px" height="9.9px" viewBox="-41.2 -1.9 26.3 9.9" enable-background="new -41.2 -1.9 26.3 9.9" xml:space="preserve">
<g>
	<path fill="#333333" d="M-40.1,1.7l0.8,2.9c0.2,0.7,0.3,1.3,0.4,1.8l0,0c0.2-0.6,0.4-1.2,0.6-1.8l0.9-2.9h0.8l0.9,2.8
		c0.2,0.8,0.4,1.3,0.5,1.9l0,0c0.2-0.6,0.3-1.2,0.5-1.9l0.9-2.8h1l-1.8,5.8h-0.9l-0.9-2.8C-36.6,4-36.8,3.4-37,2.8l0,0
		c-0.1,0.7-0.3,1.3-0.5,1.9l-0.9,2.8h-1l-1.7-5.8H-40.1z"/>
	<path fill="#333333" d="M-31.2,1.7l0.8,2.9c0.1,0.7,0.3,1.3,0.3,1.9l0,0c0.2-0.6,0.3-1.2,0.5-1.8l1-2.9h0.8l0.9,2.8
		c0.2,0.8,0.4,1.3,0.5,1.9l0,0c0.1-0.6,0.2-1.2,0.4-1.8l0.9-2.9h1l-1.8,5.8h-0.9l-0.8-2.8c-0.2-0.7-0.3-1.2-0.5-1.9l0,0
		c-0.2,0.7-0.3,1.3-0.5,1.9l-0.9,2.8h-1l-1.7-5.9H-31.2z"/>
	<path fill="#333333" d="M-22.4,1.7l0.8,2.9c0.2,0.7,0.3,1.3,0.4,1.8l0,0c0.2-0.6,0.3-1.2,0.5-1.8l1-2.9h0.8l0.9,2.8
		c0.2,0.7,0.4,1.2,0.5,1.8l0,0c0.1-0.6,0.2-1.2,0.4-1.8l0.9-2.8h1l-1.9,5.8H-18l-0.8-2.8c-0.2-0.7-0.3-1.2-0.5-1.9l0,0
		c-0.2,0.7-0.3,1.3-0.5,1.9l-0.9,2.8h-0.9l-1.8-5.8H-22.4z"/>
</g>
</svg>
