<?xml version="1.0" encoding="utf-8"?>
<!-- Generator: Adobe Illustrator 18.1.1, SVG Export Plug-In . SVG Version: 6.00 Build 0)  -->
<svg version="1.1" id="Layer_1" xmlns="http://www.w3.org/2000/svg" xmlns:xlink="http://www.w3.org/1999/xlink" x="0px" y="0px"
	 viewBox="0 0 31.9 7.2" enable-background="new 0 0 31.9 7.2" xml:space="preserve">
<g>
	<path fill="#777777" d="M1.6,0l0.9,3.5C2.7,4.3,2.9,5,3,5.7h0C3.2,5,3.5,4.2,3.7,3.5L4.8,0h1l1.1,3.4C7.2,4.3,7.4,5,7.5,5.7h0
		C7.7,5,7.9,4.3,8.1,3.4l1-3.4h1.2L8.1,6.9H7l-1-3.3C5.7,2.8,5.5,2.1,5.3,1.3h0C5.1,2.2,4.9,2.9,4.7,3.6L3.6,6.9H2.4L0.4,0H1.6z"/>
	<path fill="#777777" d="M12.2,0l0.9,3.5c0.2,0.8,0.4,1.5,0.5,2.2h0c0.2-0.7,0.4-1.4,0.6-2.2L15.4,0h1l1.1,3.4
		C17.8,4.3,18,5,18.1,5.7h0c0.1-0.7,0.3-1.4,0.5-2.2l1-3.4h1.2l-2.2,6.9h-1.1l-1-3.3c-0.2-0.8-0.4-1.4-0.6-2.3h0
		c-0.2,0.8-0.4,1.5-0.6,2.3l-1.1,3.3H13L11,0H12.2z"/>
	<path fill="#777777" d="M22.8,0l0.9,3.5c0.2,0.8,0.4,1.5,0.5,2.2h0c0.2-0.7,0.4-1.4,0.6-2.2L26,0h1l1.1,3.4
		c0.3,0.8,0.5,1.5,0.6,2.2h0c0.1-0.7,0.3-1.4,0.5-2.2l1-3.4h1.2l-2.2,6.9h-1.1l-1-3.3c-0.2-0.8-0.4-1.4-0.6-2.3h0
		c-0.2,0.8-0.4,1.5-0.6,2.3l-1.1,3.3h-1.1L21.6,0H22.8z"/>
</g>
</svg>
